# xmcd
#
# Track frame offsets:
# 150
# 23399
# 44892
# 62134
# 88067
# 106998
# 125462
# 141387
# 157258
# 173838
# 191353
# 208909
# 228344
#
# Disc length: 3285 seconds
#
#
# Revision: 0
# Processed by: cddbd v1.5.2PL0 Copyright (c) Steve Scherf et al.
# Submitted via: Nero 7, 11, 10, 0 
#
DISCID=bb0cd30d
DTITLE=Mighty Mike Schermer - Right Hand Man - Volume 1
DYEAR=2007
DGENRE=Blues
TTITLE0=Earl Thomas - One More Day
TTITLE1=Howard Tate - Part Time Love
TTITLE2=Sista Monica - The Truth
TTITLE3=Elvin Bishop - I'll Be Glad
TTITLE4=Maria Muldaur - That's What I Love About The Blues
TTITLE5=Angela Strehli - I Don't Know Why
TTITLE6=Mike Duke - I'm Not Tired
TTITLE7=Andy Santana - Castin' My Spell
TTITLE8=Austin de Lone - Old Fashion
TTITLE9=Shana Morrison - Seven Years
TTITLE10=Terry Hanck - Cryin' Fool
TTITLE11=Strehli, Ball, Barton - Still A Fool
TTITLE12=John Nemeth - I'll Be True
EXTD=
EXTT0=Earl Thomas - One More Day
EXTT1=Howard Tate - Part Time Love
EXTT2=Sista Monica - The Truth
EXTT3=Elvin Bishop - I'll Be Glad
EXTT4=Maria Muldaur - That's What I Love About The Blues
EXTT5=Angela Strehli - I Don't Know Why
EXTT6=Mike Duke - I'm Not Tired
EXTT7=Andy Santana - Castin' My Spell
EXTT8=Austin de Lone - Old Fashion
EXTT9=Shana Morrison - Seven Years
EXTT10=Terry Hanck - Cryin' Fool
EXTT11=Strehli, Ball, Barton - Still A Fool
EXTT12=John Nemeth - I'll Be True
PLAYORDER=
